<svg xmlns="http://www.w3.org/2000/svg" viewBox="0 0 512 512">
  <defs>
    <linearGradient id="bg" x1="0%" y1="0%" x2="100%" y2="100%">
      <stop offset="0%" stop-color="#0B5FFF"/>
      <stop offset="100%" stop-color="#071B52"/>
    </linearGradient>
    <linearGradient id="g" x1="0%" y1="0%" x2="100%" y2="100%">
      <stop offset="0%" stop-color="#3B8BFF"/>
      <stop offset="100%" stop-color="#0B5FFF"/>
    </linearGradient>
    <filter id="shadow" x="-20%" y="-20%" width="140%" height="140%">
      <feDropShadow dx="0" dy="6" stdDeviation="10" flood-color="#000000" flood-opacity="0.35"/>
    </filter>
    <clipPath id="round">
      <rect width="512" height="512" rx="112" ry="112"/>
    </clipPath>
  </defs>
  <g clip-path="url(#round)">
    <rect width="512" height="512" fill="url(#bg)"/>
    <rect width="512" height="512" fill="url(#spec)" opacity="0"/>
    <radialGradient id="spec" cx="30%" cy="22%" r="55%">
      <stop offset="0%" stop-color="#ffffff" stop-opacity="0.14"/>
      <stop offset="100%" stop-color="#ffffff" stop-opacity="0"/>
    </radialGradient>
    <rect width="512" height="512" fill="url(#spec)"/>
    <!-- D -->
    <path d="M108 148h72c62 0 102 38 102 108s-40 108-102 108h-72V148z" fill="#ffffff" filter="url(#shadow)"/>
    <path d="M148 188h32c36 0 58 22 58 68s-22 68-58 68h-32V188z" fill="url(#bg)"/>
    <!-- G -->
    <path d="M248 148c78 0 132 52 132 128s-54 128-132 128c-44 0-78-16-102-44l36-40c16 18 36 28 66 28 48 0 78-32 78-72s-30-72-78-72c-24 0-44 8-58 22v34h58v44h-102V148h70z" fill="url(#g)" filter="url(#shadow)"/>
    <!-- Laptop -->
    <g transform="translate(318,286) scale(0.92)" fill="#ffffff" opacity="0.95">
      <rect x="0" y="0" width="118" height="78" rx="8" fill="#071B52" stroke="#ffffff" stroke-width="5"/>
      <rect x="10" y="10" width="98" height="52" rx="4" fill="#0B5FFF" opacity="0.35"/>
      <path d="M-14 86h146l-18 22H4z" fill="#ffffff"/>
      <rect x="52" y="92" width="18" height="6" rx="2" fill="#14B8A6"/>
    </g>
    <!-- POS label -->
    <text x="256" y="438" text-anchor="middle" font-family="Inter, Helvetica, Arial, sans-serif" font-size="44" font-weight="800" letter-spacing="6" fill="#ffffff" opacity="0.92">POS</text>
  </g>
  <rect x="3" y="3" width="506" height="506" rx="110" ry="110" fill="none" stroke="#ffffff" stroke-width="4" opacity="0.22"/>
</svg>